<?xml version="1.0" standalone="no"?>
<!DOCTYPE svg PUBLIC "-//W3C//DTD SVG 20010904//EN"
 "http://www.w3.org/TR/2001/REC-SVG-20010904/DTD/svg10.dtd">
<svg version="1.0" xmlns="http://www.w3.org/2000/svg"
 width="164.000000pt" height="164.000000pt" viewBox="0 0 164.000000 164.000000"
 preserveAspectRatio="xMidYMid meet">
<metadata>
Created by potrace 1.14, written by Peter Selinger 2001-2017
</metadata>
<g transform="translate(0.000000,164.000000) scale(0.100000,-0.100000)"
fill="#000000" stroke="none">
<path d="M0 820 l0 -820 820 0 820 0 0 820 0 820 -820 0 -820 0 0 -820z m543
388 c14 -12 16 -50 19 -333 4 -430 -6 -415 259 -415 170 0 207 10 237 64 15
27 17 72 20 354 l3 323 25 11 c18 8 31 8 49 0 l25 -12 0 -324 c0 -349 -3 -374
-55 -441 -13 -18 -46 -43 -72 -56 -45 -23 -58 -24 -233 -24 -175 0 -188 1
-233 24 -26 13 -59 38 -72 56 -52 67 -55 92 -55 441 0 297 1 324 18 333 23 14
45 13 65 -1z"/>
</g>
</svg>
